<svg width="20" height="20" viewBox="0 0 20 20" fill="none" xmlns="http://www.w3.org/2000/svg">
<path d="M6.94516 10C6.94516 8.31254 8.31281 6.94421 10.0003 6.94421C11.6879 6.94421 13.0563 8.31254 13.0563 10C13.0563 11.6875 11.6879 13.0558 10.0003 13.0558C8.31281 13.0558 6.94516 11.6875 6.94516 10ZM5.29319 10C5.29319 12.5997 7.40058 14.707 10.0003 14.707C12.6001 14.707 14.7075 12.5997 14.7075 10C14.7075 7.40034 12.6001 5.29304 10.0003 5.29304C7.40058 5.29304 5.29319 7.40034 5.29319 10ZM13.7938 5.1064C13.7937 5.32396 13.8582 5.53666 13.979 5.71761C14.0998 5.89855 14.2715 6.03961 14.4725 6.12294C14.6735 6.20628 14.8946 6.22815 15.108 6.18579C15.3214 6.14344 15.5175 6.03875 15.6714 5.88497C15.8253 5.7312 15.9301 5.53524 15.9727 5.32187C16.0152 5.10851 15.9935 4.88733 15.9103 4.6863C15.8272 4.48527 15.6862 4.31341 15.5054 4.19247C15.3245 4.07153 15.1119 4.00693 14.8943 4.00684C14.6027 4.00698 14.3226 4.12286 14.1163 4.32902C13.9101 4.53519 13.7941 4.81478 13.7938 5.1064ZM6.29686 17.4615C5.40312 17.4208 4.91734 17.2719 4.59451 17.1461C4.16652 16.9795 3.86115 16.7811 3.54008 16.4605C3.21902 16.1398 3.02027 15.8348 2.85439 15.4068C2.72854 15.0841 2.57967 14.5982 2.53904 13.7045C2.4946 12.7383 2.48573 12.448 2.48573 10.0001C2.48573 7.55214 2.49533 7.2627 2.53904 6.29565C2.57974 5.40194 2.72972 4.91698 2.85439 4.59336C3.02101 4.16539 3.21946 3.86003 3.54008 3.53898C3.86071 3.21792 4.16579 3.01919 4.59451 2.85331C4.91719 2.72747 5.40312 2.5786 6.29686 2.53798C7.26314 2.49354 7.55341 2.48466 10.0003 2.48466C12.4473 2.48466 12.7378 2.49427 13.7049 2.53798C14.5987 2.57868 15.0837 2.72864 15.4073 2.85331C15.8353 3.01919 16.1406 3.21836 16.4617 3.53898C16.7828 3.85959 16.9808 4.16539 17.1474 4.59336C17.2733 4.91603 17.4221 5.40194 17.4628 6.29565C17.5072 7.2627 17.5161 7.55214 17.5161 10.0001C17.5161 12.448 17.5072 12.7375 17.4628 13.7045C17.4221 14.5982 17.2724 15.084 17.1474 15.4068C16.9808 15.8348 16.7823 16.1401 16.4617 16.4605C16.1411 16.7808 15.8353 16.9795 15.4073 17.1461C15.0846 17.272 14.5987 17.4208 13.7049 17.4615C12.7387 17.5059 12.4484 17.5148 10.0003 17.5148C7.55231 17.5148 7.26285 17.5059 6.29686 17.4615ZM6.22096 0.888857C5.24508 0.933297 4.57823 1.08803 3.99587 1.31463C3.39275 1.54864 2.88218 1.86258 2.37198 2.37195C1.86178 2.88132 1.54863 3.39268 1.31462 3.99577C1.08801 4.57848 0.93327 5.24493 0.888829 6.22078C0.843653 7.19816 0.833313 7.51064 0.833313 10C0.833313 12.4894 0.843653 12.8019 0.888829 13.7792C0.93327 14.7552 1.08801 15.4215 1.31462 16.0043C1.54863 16.607 1.86185 17.1189 2.37198 17.6281C2.88211 18.1372 3.39275 18.4507 3.99587 18.6854C4.57933 18.912 5.24508 19.0667 6.22096 19.1112C7.1989 19.1556 7.51087 19.1667 10.0003 19.1667C12.4898 19.1667 12.8023 19.1563 13.7797 19.1112C14.7557 19.0667 15.4221 18.912 16.0048 18.6854C16.6076 18.4507 17.1185 18.1374 17.6287 17.6281C18.1389 17.1187 18.4514 16.607 18.6861 16.0043C18.9127 15.4215 19.0682 14.7551 19.1119 13.7792C19.1563 12.8011 19.1666 12.4894 19.1666 10C19.1666 7.51064 19.1563 7.19816 19.1119 6.22078C19.0674 5.24486 18.9127 4.57811 18.6861 3.99577C18.4514 3.39304 18.1381 2.88213 17.6287 2.37195C17.1193 1.86177 16.6076 1.54864 16.0056 1.31463C15.4221 1.08803 14.7556 0.932564 13.7805 0.888857C12.803 0.844417 12.4906 0.833344 10.0011 0.833344C7.51161 0.833344 7.1989 0.843684 6.22096 0.888857Z" fill="white"/>
</svg>
