<svg width="21" height="21" viewBox="0 0 21 21" fill="none" xmlns="http://www.w3.org/2000/svg">
<path d="M13.0029 3.6378C12.4609 3.53204 11.9357 3.88573 11.8299 4.4278C11.7242 4.96986 12.0779 5.49502 12.6199 5.60078L13.0029 3.6378ZM15.4016 8.38242C15.5073 8.92448 16.0325 9.27818 16.5746 9.17242C17.1166 9.06666 17.4703 8.5415 17.3646 7.99943L15.4016 8.38242ZM12.9218 0.00855559C12.3729 -0.0524237 11.8785 0.343121 11.8175 0.892029C11.7566 1.44094 12.1521 1.93535 12.701 1.99633L12.9218 0.00855559ZM19.0062 8.29355C19.0678 8.84238 19.5627 9.2373 20.1116 9.17563C20.6604 9.11396 21.0553 8.61905 20.9937 8.07022L19.0062 8.29355ZM19.0954 18.1101H18.0954L18.0954 18.1142L19.0954 18.1101ZM17.1242 19.9185L17.0162 20.9127C17.0222 20.9133 17.0282 20.9139 17.0342 20.9145L17.1242 19.9185ZM9.32085 17.1426L9.86498 16.3035L9.85717 16.2986L9.32085 17.1426ZM3.89558 11.7173L4.73963 11.181L4.73486 11.1736L3.89558 11.7173ZM1.11965 3.87781L0.123709 3.96781C0.124179 3.97302 0.12469 3.97822 0.125242 3.98341L1.11965 3.87781ZM2.91903 1.90663V0.906631L2.91809 0.906632L2.91903 1.90663ZM5.63167 1.90663V2.90668L5.64151 2.90658L5.63167 1.90663ZM7.44009 3.46188L8.43155 3.33111L8.43025 3.32192L7.44009 3.46188ZM8.07304 6.00271L7.13614 6.35232L7.13699 6.35457L8.07304 6.00271ZM7.66614 7.9106L8.37326 8.61772L8.3772 8.61374L7.66614 7.9106ZM6.5178 9.05895L5.81069 8.35184C5.49238 8.67016 5.42599 9.16192 5.6485 9.55324L6.5178 9.05895ZM11.9431 14.4842L11.4488 15.3535C11.8401 15.576 12.3319 15.5096 12.6502 15.1913L11.9431 14.4842ZM13.0914 13.3359L12.3883 12.6248L12.3843 12.6288L13.0914 13.3359ZM14.9993 12.929L14.6474 13.865L14.6497 13.8659L14.9993 12.929ZM17.5401 13.5619L17.6798 12.5717L17.6709 12.5705L17.5401 13.5619ZM12.6199 5.60078C14.0269 5.8753 15.1271 6.97541 15.4016 8.38242L17.3646 7.99943C16.9341 5.79323 15.2091 4.06824 13.0029 3.6378L12.6199 5.60078ZM12.701 1.99633C16.0158 2.36458 18.6337 4.97921 19.0062 8.29355L20.9937 8.07022C20.5169 3.82723 17.1654 0.479985 12.9218 0.00855559L12.701 1.99633ZM18.0954 15.3975V18.1101H20.0954V15.3975H18.0954ZM18.0954 18.1142C18.0963 18.3418 18.0012 18.5593 17.8335 18.7132L19.1856 20.1869C19.7683 19.6523 20.0986 18.8968 20.0954 18.1061L18.0954 18.1142ZM17.8335 18.7132C17.6658 18.867 17.4409 18.9431 17.2142 18.9226L17.0342 20.9145C17.8218 20.9857 18.6029 20.7215 19.1856 20.1869L17.8335 18.7132ZM17.2322 18.9244C14.6053 18.639 12.082 17.7413 9.86495 16.3036L8.77675 17.9816C11.2562 19.5895 14.0783 20.5935 17.0162 20.9127L17.2322 18.9244ZM9.85717 16.2986C7.79635 14.9891 6.04913 13.2418 4.73959 11.181L3.05157 12.2537C4.51857 14.5623 6.47589 16.5196 8.78453 17.9866L9.85717 16.2986ZM4.73486 11.1736C3.29212 8.94655 2.39427 6.41094 2.11406 3.77221L0.125242 3.98341C0.438629 6.93452 1.44277 9.7703 3.0563 12.261L4.73486 11.1736ZM2.11559 3.78781C2.09517 3.56181 2.17067 3.33762 2.32367 3.17002L0.846549 1.82165C0.315063 2.40388 0.0527582 3.18268 0.123709 3.96781L2.11559 3.78781ZM2.32367 3.17002C2.47666 3.00243 2.69305 2.90685 2.91997 2.90663L2.91809 0.906632C2.12976 0.907375 1.37803 1.23942 0.846549 1.82165L2.32367 3.17002ZM2.91903 2.90663H5.63167V0.906632H2.91903V2.90663ZM5.64151 2.90658C6.04728 2.90259 6.39314 3.20003 6.44993 3.60183L8.43025 3.32192C8.23296 1.92609 7.03146 0.892806 5.62183 0.90668L5.64151 2.90658ZM6.44868 3.59263C6.57303 4.53551 6.80366 5.46129 7.13614 6.35232L9.00994 5.65311C8.73018 4.9034 8.53614 4.12445 8.43151 3.33112L6.44868 3.59263ZM7.13699 6.35457C7.24804 6.65 7.17701 6.98304 6.95509 7.20746L8.3772 8.61374C9.14813 7.83413 9.39488 6.67716 9.00909 5.65085L7.13699 6.35457ZM6.95904 7.20349L5.81069 8.35184L7.2249 9.76606L8.37325 8.61771L6.95904 7.20349ZM5.6485 9.55324C7.02467 11.9735 9.02857 13.9773 11.4488 15.3535L12.4374 13.6149C10.3301 12.4167 8.58531 10.6719 7.38709 8.56465L5.6485 9.55324ZM12.6502 15.1913L13.7985 14.043L12.3843 12.6288L11.236 13.7771L12.6502 15.1913ZM13.7946 14.0469C14.019 13.825 14.352 13.754 14.6474 13.865L15.3512 11.9929C14.3249 11.6071 13.1679 11.8539 12.3883 12.6248L13.7946 14.0469ZM14.6497 13.8659C15.5407 14.1984 16.4665 14.429 17.4094 14.5533L17.6709 12.5705C16.8776 12.4659 16.0986 12.2718 15.3489 11.9921L14.6497 13.8659ZM17.4004 14.5521C17.8069 14.6095 18.1059 14.9623 18.0957 15.3727L20.0951 15.4223C20.1304 13.9967 19.0919 12.7709 17.6798 12.5717L17.4004 14.5521Z" fill="#374044"/>
</svg>
