<svg width="20" height="13" viewBox="0 0 20 13" fill="none" xmlns="http://www.w3.org/2000/svg">
<path fill-rule="evenodd" clip-rule="evenodd" d="M19.5411 1.01304C19.6802 0.52521 19.5411 0.166656 18.8794 0.166656H16.6914C16.135 0.166656 15.8787 0.47636 15.7396 0.817972C15.7396 0.817972 14.6269 3.67208 13.0505 5.52603C12.5406 6.06271 12.3088 6.23327 12.0306 6.23327C11.8915 6.23327 11.6902 6.06271 11.6902 5.57488V1.01304C11.6902 0.427512 11.5288 0.166656 11.0651 0.166656H7.62678C7.2792 0.166656 7.07009 0.438367 7.07009 0.695933C7.07009 1.25103 7.85808 1.37899 7.93935 2.94018V6.33113C7.93935 7.07455 7.81182 7.20942 7.53363 7.20942C6.7919 7.20942 4.98773 4.34231 3.91748 1.06189C3.70774 0.424222 3.49738 0.166656 2.93819 0.166656H0.750175C0.125029 0.166656 0 0.47636 0 0.817972C0 1.42784 0.741892 4.45284 3.45393 8.4535C5.26217 11.1854 7.80932 12.6667 10.1274 12.6667C11.5183 12.6667 11.6902 12.3377 11.6902 11.7711V9.70613C11.6902 9.04823 11.822 8.91699 12.2622 8.91699C12.587 8.91699 13.1432 9.08771 14.4415 10.405C15.925 11.966 16.1694 12.6667 17.004 12.6667H19.192C19.8171 12.6667 20.1297 12.3377 19.9493 11.6885C19.7521 11.0415 19.0438 10.103 18.1039 8.99018C17.594 8.3558 16.8289 7.67274 16.5973 7.33129C16.2727 6.89215 16.3654 6.69708 16.5973 6.30695C16.5973 6.30695 19.2629 2.35498 19.5411 1.0132V1.01304Z" fill="white"/>
</svg>
